<?xml version="1.0" encoding="iso-8859-1"?>
<!-- Generator: Adobe Illustrator 21.0.0, SVG Export Plug-In . SVG Version: 6.00 Build 0)  -->
<svg version="1.1" id="Capa_1" xmlns="http://www.w3.org/2000/svg" xmlns:xlink="http://www.w3.org/1999/xlink" x="0px" y="0px"
	 viewBox="0 0 512 512" style="enable-background:new 0 0 512 512;" xml:space="preserve">
<path style="fill:#6E6E6E;" d="M451,256v-47.563c0-4.863-2.358-9.434-6.343-12.246c-3.97-2.827-9.082-3.53-13.652-1.904
	C412.284,200.907,391,185.966,391,166c-0.015-19.966,21.27-34.995,40.005-28.286c4.57,1.626,9.683,0.923,13.652-1.904
	c3.984-2.813,6.343-7.383,6.343-12.246V76c0-8.291-6.709-15-15-15h-30c0-33.091-26.909-61-60-61s-60,27.909-60,61h-30l-30,105l30,90
	l105,30L451,256z"/>
<path style="fill:#FF4B00;" d="M256,451h47.563c4.863,0,9.434-2.358,12.246-6.343c2.813-3.97,3.516-9.067,1.904-13.652
	C316.571,427.797,316,424.428,316,421c0-16.538,13.462-30,30-30s30,13.462,30,30c0,3.428-0.571,6.797-1.714,10.005
	c-1.611,4.585-0.908,9.683,1.904,13.652c2.813,3.984,7.383,6.343,12.246,6.343H436c8.291,0,15-6.709,15-15v-30
	c33.091,0,61-26.909,61-60s-27.909-60-61-60v-30H256l-30,105L256,451z"/>
<path style="fill:#76E2F8;" d="M67.343,315.81c3.97,2.813,9.097,3.516,13.652,1.904C99.657,311.049,121,326.034,121,346
	c0,19.951-21.357,34.907-40.005,28.286c-4.556-1.597-9.683-0.908-13.652,1.904C63.358,379.003,61,383.573,61,388.437V436
	c0,8.291,6.709,15,15,15h30c0,33.091,26.909,61,60,61s60-27.909,60-61h30V256l-97.5-30L61,256v47.563
	C61,308.427,63.358,312.997,67.343,315.81z"/>
<path style="fill:#FFD400;" d="M256,61h-47.563c-4.863,0-9.434,2.358-12.246,6.343c-2.813,3.97-3.516,9.067-1.904,13.652
	C195.429,84.203,196,87.572,196,91c0,16.538-13.462,30-30,30s-30-13.462-30-30c0-3.428,0.571-6.797,1.714-10.005
	c1.611-4.585,0.908-9.683-1.904-13.652C132.997,63.358,128.427,61,123.563,61H76c-8.291,0-15,6.709-15,15v30
	c-33.091,0-61,26.909-61,60s27.909,60,61,60v30h195V61z"/>
<g>
</g>
<g>
</g>
<g>
</g>
<g>
</g>
<g>
</g>
<g>
</g>
<g>
</g>
<g>
</g>
<g>
</g>
<g>
</g>
<g>
</g>
<g>
</g>
<g>
</g>
<g>
</g>
<g>
</g>
</svg>
